<?xml version="1.0" standalone="no"?>
<!DOCTYPE svg PUBLIC "-//W3C//DTD SVG 20010904//EN"
 "http://www.w3.org/TR/2001/REC-SVG-20010904/DTD/svg10.dtd">
<svg version="1.0" xmlns="http://www.w3.org/2000/svg"
 width="300.000000pt" height="170.000000pt" viewBox="0 0 300.000000 170.000000"
 preserveAspectRatio="xMidYMid meet">
<metadata>
Created by potrace 1.10, written by Peter Selinger 2001-2011
</metadata>
<g transform="translate(0.000000,170.000000) scale(0.100000,-0.100000)"
fill="#000000" stroke="none">
<path d="M696 1649 c-14 -21 -16 -76 -16 -522 l0 -498 23 -23 24 -23 499 4
c274 2 514 6 532 9 61 9 64 79 5 102 -117 47 -620 162 -706 162 l-29 0 6 68
c11 132 16 198 18 283 l3 86 145 7 c546 26 1041 99 1445 213 86 25 138 45 153
60 27 27 27 34 3 64 l-19 23 -1034 4 -1035 4 -17 -23z m2066 -30 c11 -7 10
-11 -2 -22 -17 -17 -104 -47 -133 -47 -16 0 -17 3 -7 15 16 20 13 19 -108 -10
-381 -92 -819 -152 -1282 -175 -172 -9 -228 -15 -236 -25 -6 -8 -14 -86 -18
-177 -7 -158 -10 -213 -21 -309 -4 -31 -1 -50 7 -56 7 -6 47 -16 88 -23 110
-17 363 -68 452 -91 42 -10 87 -19 99 -19 22 0 22 0 3 16 -18 15 -17 15 16 10
53 -9 140 -47 140 -61 0 -15 -79 -26 -128 -18 -22 4 -31 10 -28 19 5 12 -65
14 -419 14 l-425 0 0 193 c0 105 -3 318 -7 471 l-6 279 936 -6 c610 -4 937 -3
937 3 0 6 -6 10 -12 10 -9 0 -8 4 2 10 18 12 132 11 152 -1z"/>
<path d="M1265 1180 c-93 -3 -176 -9 -182 -13 -22 -14 -15 -65 10 -81 45 -30
417 -123 647 -162 l106 -18 -7 -60 c-4 -34 -10 -132 -14 -218 l-7 -158 -92 0
c-440 -1 -1157 -107 -1557 -230 -96 -30 -109 -40 -109 -81 0 -49 -28 -48 1062
-55 944 -7 1018 -6 1042 10 l26 16 0 508 c0 443 -2 510 -16 530 l-15 22 -362
-2 c-199 -1 -438 -5 -532 -8z m3 -37 c21 -5 22 -6 5 -20 -16 -12 36 -14 415
-10 l432 5 0 -475 0 -475 -942 6 c-632 5 -938 4 -928 -3 8 -5 11 -14 6 -18
-11 -11 -137 -6 -149 6 -10 10 26 38 58 44 11 2 33 9 48 15 16 7 36 12 45 12
14 -1 12 -4 -7 -20 -13 -11 -21 -20 -18 -20 3 0 61 13 129 29 409 97 884 161
1316 177 128 5 188 11 197 20 8 8 15 63 20 160 4 81 8 159 10 173 2 14 6 68
10 118 8 106 10 104 -95 118 -75 10 -279 50 -434 86 -70 17 -131 28 -134 25
-2 -3 3 -8 12 -12 38 -14 12 -21 -36 -9 -97 23 -136 47 -107 65 14 9 111 11
147 3z"/>
</g>
</svg>
