<?xml version="1.0" encoding="utf-8" standalone="no"?>
<!DOCTYPE svg PUBLIC "-//W3C//DTD SVG 1.1//EN"
  "http://www.w3.org/Graphics/SVG/1.1/DTD/svg11.dtd">
<svg xmlns:xlink="http://www.w3.org/1999/xlink" width="720pt" height="288pt" viewBox="0 0 720 288" xmlns="http://www.w3.org/2000/svg" version="1.1">
 <metadata>
  <rdf:RDF xmlns:dc="http://purl.org/dc/elements/1.1/" xmlns:cc="http://creativecommons.org/ns#" xmlns:rdf="http://www.w3.org/1999/02/22-rdf-syntax-ns#">
   <cc:Work>
    <dc:type rdf:resource="http://purl.org/dc/dcmitype/StillImage"/>
    <dc:date>2024-10-01T08:50:08.410061</dc:date>
    <dc:format>image/svg+xml</dc:format>
    <dc:creator>
     <cc:Agent>
      <dc:title>Matplotlib v3.6.3, https://matplotlib.org/</dc:title>
     </cc:Agent>
    </dc:creator>
   </cc:Work>
  </rdf:RDF>
 </metadata>
 <defs>
  <style type="text/css">*{stroke-linejoin: round; stroke-linecap: butt}</style>
 </defs>
 <g id="figure_1">
  <g id="patch_1">
   <path d="M 0 288 
L 720 288 
L 720 0 
L 0 0 
z
" style="fill: #ffffff"/>
  </g>
  <g id="axes_1">
   <g id="patch_2">
    <path d="M 90 256.32 
L 343.636364 256.32 
L 343.636364 34.56 
L 90 34.56 
z
" style="fill: #ffffff"/>
   </g>
   <g id="patch_3">
    <path d="M 101.528926 256.32 
L 139.958678 256.32 
L 139.958678 221.12 
L 101.528926 221.12 
z
" clip-path="url(#pa25298b97c)" style="fill: #d9d9d9; stroke: #000000; stroke-linejoin: miter"/>
   </g>
   <g id="patch_4">
    <path d="M 149.566116 256.32 
L 187.995868 256.32 
L 187.995868 221.12 
L 149.566116 221.12 
z
" clip-path="url(#pa25298b97c)" style="fill: #d9d9d9; stroke: #000000; stroke-linejoin: miter"/>
   </g>
   <g id="patch_5">
    <path d="M 197.603306 256.32 
L 236.033058 256.32 
L 236.033058 45.12 
L 197.603306 45.12 
z
" clip-path="url(#pa25298b97c)" style="fill: #cc716e; stroke: #000000; stroke-linejoin: miter"/>
   </g>
   <g id="patch_6">
    <path d="M 245.640496 256.32 
L 284.070248 256.32 
L 284.070248 221.12 
L 245.640496 221.12 
z
" clip-path="url(#pa25298b97c)" style="fill: #d9d9d9; stroke: #000000; stroke-linejoin: miter"/>
   </g>
   <g id="patch_7">
    <path d="M 293.677686 256.32 
L 332.107438 256.32 
L 332.107438 221.12 
L 293.677686 221.12 
z
" clip-path="url(#pa25298b97c)" style="fill: #d9d9d9; stroke: #000000; stroke-linejoin: miter"/>
   </g>
   <g id="matplotlib.axis_1"/>
   <g id="matplotlib.axis_2"/>
   <g id="patch_8">
    <path d="M 90 256.32 
L 90 34.56 
" style="fill: none; stroke: #1a1a1a; stroke-linejoin: miter; stroke-linecap: square"/>
   </g>
   <g id="patch_9">
    <path d="M 90 256.32 
L 343.636364 256.32 
" style="fill: none; stroke: #1a1a1a; stroke-linejoin: miter; stroke-linecap: square"/>
   </g>
  </g>
  <g id="axes_2">
   <g id="patch_10">
    <path d="M 394.363636 256.32 
L 648 256.32 
L 648 34.56 
L 394.363636 34.56 
z
" style="fill: #ffffff"/>
   </g>
   <g id="patch_11">
    <path d="M 405.892562 256.32 
L 444.322314 256.32 
L 444.322314 185.92 
L 405.892562 185.92 
z
" clip-path="url(#p56d272b402)" style="fill: #d9d9d9; stroke: #000000; stroke-linejoin: miter"/>
   </g>
   <g id="patch_12">
    <path d="M 453.929752 256.32 
L 492.359504 256.32 
L 492.359504 115.52 
L 453.929752 115.52 
z
" clip-path="url(#p56d272b402)" style="fill: #d9d9d9; stroke: #000000; stroke-linejoin: miter"/>
   </g>
   <g id="patch_13">
    <path d="M 501.966942 256.32 
L 540.396694 256.32 
L 540.396694 45.12 
L 501.966942 45.12 
z
" clip-path="url(#p56d272b402)" style="fill: #cc716e; stroke: #000000; stroke-linejoin: miter"/>
   </g>
   <g id="patch_14">
    <path d="M 550.004132 256.32 
L 588.433884 256.32 
L 588.433884 115.52 
L 550.004132 115.52 
z
" clip-path="url(#p56d272b402)" style="fill: #d9d9d9; stroke: #000000; stroke-linejoin: miter"/>
   </g>
   <g id="patch_15">
    <path d="M 598.041322 256.32 
L 636.471074 256.32 
L 636.471074 185.92 
L 598.041322 185.92 
z
" clip-path="url(#p56d272b402)" style="fill: #d9d9d9; stroke: #000000; stroke-linejoin: miter"/>
   </g>
   <g id="matplotlib.axis_3"/>
   <g id="matplotlib.axis_4"/>
   <g id="patch_16">
    <path d="M 394.363636 256.32 
L 394.363636 34.56 
" style="fill: none; stroke: #1a1a1a; stroke-linejoin: miter; stroke-linecap: square"/>
   </g>
   <g id="patch_17">
    <path d="M 394.363636 256.32 
L 648 256.32 
" style="fill: none; stroke: #1a1a1a; stroke-linejoin: miter; stroke-linecap: square"/>
   </g>
  </g>
 </g>
 <defs>
  <clipPath id="pa25298b97c">
   <rect x="90" y="34.56" width="253.636364" height="221.76"/>
  </clipPath>
  <clipPath id="p56d272b402">
   <rect x="394.363636" y="34.56" width="253.636364" height="221.76"/>
  </clipPath>
 </defs>
</svg>
